HIERARCHY
ROOT Hips
{
	OFFSET 0.00000 0.00000 0.00000
	CHANNELS 6 Xposition Yposition Zposition Zrotation Yrotation Xrotation 
	JOINT RightUpLegDummy
	{
		OFFSET 0 0 0
		CHANNELS 3 Zrotation Yrotation Xrotation
		JOINT RightUpLeg
		{
			OFFSET -3.52197 -3.41223 0.04002
			CHANNELS 3 Zrotation Yrotation Xrotation
			JOINT RightLeg
			{
				OFFSET 0.00006 -17.42390 1.60435
				CHANNELS 3 Zrotation Yrotation Xrotation
				JOINT RightFoot
				{
					OFFSET 0.06154 -16.50078 -1.63900
					CHANNELS 3 Zrotation Yrotation Xrotation
					JOINT RightToes
					{
						OFFSET 0.00298 -1.73825 3.34613
						CHANNELS 3 Zrotation Yrotation Xrotation
						End Site
						{
							OFFSET 0.00480 -0.05416 3.85043
						}
					}
				}
			}
		}
	}
	JOINT SpineDummy
	{
		OFFSET 0 0 0
		CHANNELS 3 Zrotation Yrotation Xrotation
		JOINT Spine
		{
			OFFSET 0.00000 4.68130 0.00000
			CHANNELS 3 Zrotation Yrotation Xrotation
			JOINT Spine1
			{
				OFFSET -0.00000 10.10138 0.05002
				CHANNELS 3 Zrotation Yrotation Xrotation
				JOINT HEadDummy
				{
					OFFSET 0 0 0
					CHANNELS 3 Zrotation Yrotation Xrotation
					JOINT Head
					{
						OFFSET -0.00000 3.43865 0.00438
						CHANNELS 3 Zrotation Yrotation Xrotation
						End Site
						{
							OFFSET -0.11417 5.02924 0.98962
						}
					}
				}
				JOINT LeftShoulder1Dummy
				{
					OFFSET 0 0 0
					CHANNELS 3 Zrotation Yrotation Xrotation
					JOINT LeftShoulder1
					{
						OFFSET 3.53937 -0.14262 -0.08662
						CHANNELS 3 Zrotation Yrotation Xrotation
						JOINT LeftArm
						{
							OFFSET 4.04833 -0.00133 0.12681
							CHANNELS 3 Zrotation Yrotation Xrotation
							JOINT LeftForeArm
							{
								OFFSET 10.33880 -0.01036 -0.55515
								CHANNELS 3 Zrotation Yrotation Xrotation
								JOINT LeftHand
								{
									OFFSET 8.69677 0.07543 0.40060
									CHANNELS 3 Zrotation Yrotation Xrotation
									End Site
									{
										OFFSET 5.28377 -0.21905 0.59205
									}
								}
							}
						}
					}
				}
				JOINT RightShoulderDummy
				{
					OFFSET 0 0 0
					CHANNELS 3 Zrotation Yrotation Xrotation
					JOINT RightShoulder
					{
						OFFSET -3.53937 -0.14262 -0.08660
						CHANNELS 3 Zrotation Yrotation Xrotation
						JOINT RightArm
						{
							OFFSET -4.04833 -0.00133 0.12683
							CHANNELS 3 Zrotation Yrotation Xrotation
							JOINT RightForeArm
							{
								OFFSET -10.37987 -0.01039 -0.55511
								CHANNELS 3 Zrotation Yrotation Xrotation
								JOINT RightHand
								{
									OFFSET -8.67398 0.07538 0.40058
									CHANNELS 3 Zrotation Yrotation Xrotation
									End Site
									{
										OFFSET -5.24810 -0.21916 0.59204
									}
								}
							}
						}
					}
				}
			}
		}
	}
	JOINT LeftUpLegDummy
	{
		OFFSET 0 0 0
		CHANNELS 3 Zrotation Yrotation Xrotation
		JOINT LeftUpLeg
		{
			OFFSET 3.52197 -3.41223 0.04002
			CHANNELS 3 Zrotation Yrotation Xrotation
			JOINT LeftLeg
			{
				OFFSET -0.00012 -17.42399 1.60337
				CHANNELS 3 Zrotation Yrotation Xrotation
				JOINT LeftFoot
				{
					OFFSET -0.09972 -16.50070 -1.63802
					CHANNELS 3 Zrotation Yrotation Xrotation
					JOINT LeftToes
					{
						OFFSET -0.01575 -1.73823 3.34611
						CHANNELS 3 Zrotation Yrotation Xrotation
						End Site
						{
							OFFSET 0.03150 -0.01868 3.85031
						}
					}
				}
			}
		}
	}
}
MOTION
Frames: 13
Frame Time: 0.033333
-83.2335 34.2723 -2.3094 179.9730 -75.2240 -16.6167 0.0000 0.0000 0.0000 -11.9230 -17.1560 -164.4095 172.9223 -8.0692 166.5225 -6.7701 1.4471 12.0188 0.0000 0.0000 -0.0000 0.0000 0.0000 0.0000 -151.7906 -67.2193 -44.0412 50.5949 74.4123 54.7681 0.0000 0.0000 0.0000 -0.3692 2.3528 -6.0999 0.0000 0.0000 0.0000 -19.4314 -3.0532 1.7002 -57.9195 -12.8332 -19.2483 -11.7762 4.4821 41.6207 13.5212 -1.4821 -0.7873 0.0000 0.0000 0.0000 19.3981 0.6740 1.0826 56.9675 10.9702 4.0186 10.7395 12.5259 18.2136 -6.8098 0.4035 -0.3351 0.0000 0.0000 0.0000 13.5000 15.6120 -165.6092 -166.6504 -0.7777 170.8181 12.8650 -1.7687 4.0307 -0.0000 -0.0000 0.0000
-83.2386 34.2682 -2.3153 179.9130 -75.4205 -16.5334 0.0000 0.0000 0.0000 -11.9233 -17.2317 -164.4109 172.9056 -7.7952 166.4963 -6.8248 1.4575 12.0023 0.0000 0.0000 -0.0000 0.0000 0.0000 0.0000 -151.4946 -67.4309 -44.2660 50.6623 74.4365 54.8126 0.0000 0.0000 0.0000 -0.3294 2.4190 -6.1174 0.0000 0.0000 0.0000 -19.5528 -3.2749 1.7651 -57.4959 -12.9941 -19.5124 -11.7710 4.1265 40.4452 13.3291 -1.5603 -0.7843 0.0000 0.0000 0.0000 19.4229 0.7358 1.0996 57.0206 11.1042 4.6128 10.6254 12.7581 17.7857 -6.8831 0.5287 -0.3452 0.0000 0.0000 0.0000 13.4752 15.5495 -165.7096 -166.7087 -0.4865 170.6997 12.8596 -1.7792 4.1231 -0.0000 -0.0000 0.0000
-83.2551 34.2594 -2.3289 -179.9570 -75.6395 -16.6951 0.0000 0.0000 0.0000 -11.9840 -17.3010 -164.3873 172.9308 -7.5023 166.3907 -6.8644 1.4670 12.0290 0.0000 0.0000 -0.0000 0.0000 0.0000 0.0000 -150.9106 -67.5728 -44.7847 50.6945 74.4062 54.9697 0.0000 0.0000 0.0000 -0.2603 2.5764 -6.1928 0.0000 0.0000 0.0000 -19.5163 -3.4787 1.8158 -57.0770 -13.6873 -19.9096 -11.6832 3.6153 38.4700 13.1980 -1.5515 -0.7754 0.0000 0.0000 0.0000 19.3242 0.8536 1.1261 57.3025 11.4313 6.0680 10.2987 13.3529 16.6078 -6.8894 0.6880 -0.3537 0.0000 0.0000 0.0000 13.4191 15.4374 -165.8197 -166.7766 -0.0408 170.4173 12.7885 -1.7933 4.3224 -0.0000 -0.0000 0.0000
-83.2729 34.2658 -2.3424 -179.7640 -75.7223 -16.9408 0.0000 0.0000 0.0000 -12.0355 -17.3239 -164.2640 172.9870 -7.3798 166.4779 -6.8616 1.4621 11.9948 0.0000 0.0000 -0.0000 0.0000 0.0000 0.0000 -150.3956 -67.6046 -45.3780 51.1744 74.2779 55.5581 0.0000 0.0000 0.0000 -0.3377 2.5907 -6.1589 0.0000 0.0000 0.0000 -19.5216 -3.5722 1.8404 -56.7513 -14.4289 -19.8814 -11.7693 2.8370 36.7152 13.3336 -1.5697 -0.7855 0.0000 0.0000 0.0000 19.1195 0.9510 1.1428 57.6509 11.6535 8.3840 9.7360 14.2922 14.5639 -6.7605 0.7515 -0.3502 0.0000 0.0000 0.0000 13.3670 15.3480 -165.7201 -166.8197 0.2317 170.4779 12.6379 -1.7723 4.3215 -0.0000 -0.0000 0.0000
-83.2849 34.2791 -2.3551 -179.5320 -75.7212 -17.1754 0.0000 0.0000 0.0000 -12.0658 -17.3312 -164.1537 173.0390 -7.3297 166.6688 -6.8626 1.4611 11.9377 0.0000 0.0000 -0.0000 0.0000 0.0000 0.0000 -150.2986 -67.6575 -45.5649 51.5198 74.1879 55.8039 0.0000 0.0000 0.0000 -0.4882 2.4756 -5.9784 0.0000 0.0000 0.0000 -19.5498 -3.5622 1.8400 -56.5184 -14.7853 -19.2702 -12.1241 1.6259 35.6177 13.5249 -1.8191 -0.8244 0.0000 0.0000 0.0000 18.9820 0.9594 1.1392 57.9476 11.6851 10.9812 9.0533 15.3111 12.1604 -6.5870 0.7283 -0.3398 0.0000 0.0000 0.0000 13.3059 15.3180 -165.5645 -166.8267 0.3114 170.7298 12.5045 -1.7375 4.1841 -0.0000 -0.0000 0.0000
-83.2955 34.2800 -2.3686 -179.2360 -75.7438 -17.4485 0.0000 0.0000 0.0000 -12.1256 -17.3563 -164.1473 173.0618 -7.2174 166.6792 -6.9213 1.4755 11.9742 0.0000 0.0000 -0.0000 0.0000 0.0000 0.0000 -150.5696 -67.7871 -45.2958 51.5375 74.1758 55.5136 0.0000 0.0000 0.0000 -0.6000 2.4501 -5.7230 0.0000 0.0000 0.0000 -19.5424 -3.5290 1.8310 -56.3349 -14.9545 -18.5261 -12.5057 0.3731 35.0980 13.7386 -2.2602 -0.8869 0.0000 0.0000 0.0000 18.9991 0.9060 1.1263 58.1251 11.6228 13.2694 8.3904 16.1956 9.8917 -6.5187 0.7009 -0.3349 0.0000 0.0000 0.0000 13.2315 15.2956 -165.5703 -166.8109 0.3950 170.7031 12.4730 -1.7339 4.1902 -0.0000 -0.0000 0.0000
-83.3086 34.2771 -2.3807 -178.9790 -75.8017 -17.7124 0.0000 0.0000 0.0000 -12.2182 -17.3987 -164.1157 173.0355 -7.0580 166.6552 -7.0150 1.4973 12.0087 0.0000 0.0000 -0.0000 0.0000 0.0000 0.0000 -150.7876 -67.9252 -45.0475 51.6384 74.1847 55.3221 0.0000 0.0000 0.0000 -0.6547 2.5005 -5.5285 0.0000 0.0000 0.0000 -19.5037 -3.5168 1.8248 -56.2165 -15.3184 -17.9895 -12.7390 -0.4660 34.7450 14.0756 -2.5828 -0.9461 0.0000 0.0000 0.0000 19.0343 0.8810 1.1214 58.2548 11.5582 15.1508 7.7899 16.9218 7.9743 -6.6107 0.7631 -0.3428 0.0000 0.0000 0.0000 13.1597 15.2205 -165.6262 -166.8160 0.5563 170.5391 12.4900 -1.7497 4.3046 -0.0000 -0.0000 0.0000
-83.3206 34.2886 -2.3886 -178.8240 -75.8274 -17.8839 0.0000 0.0000 0.0000 -12.2932 -17.4285 -163.9432 172.9816 -6.9701 166.9051 -7.0475 1.4953 11.8805 0.0000 0.0000 -0.0000 0.0000 0.0000 0.0000 -150.7526 -68.0023 -45.0787 51.9021 74.1972 55.4714 0.0000 0.0000 0.0000 -0.6633 2.4161 -5.4810 0.0000 0.0000 0.0000 -19.4780 -3.5346 1.8278 -56.1855 -15.8170 -17.5529 -12.8826 -0.9559 34.2808 14.3893 -2.6107 -0.9711 0.0000 0.0000 0.0000 18.9763 0.9193 1.1288 58.4139 11.5308 16.4976 7.3567 17.4079 6.8269 -6.7395 0.9558 -0.3593 0.0000 0.0000 0.0000 13.0889 15.1297 -165.5569 -166.8684 0.6728 170.6283 12.4586 -1.7462 4.3125 -0.0000 -0.0000 0.0000
-83.3296 34.2797 -2.4024 -178.2020 -75.7874 -18.4671 0.0000 0.0000 0.0000 -12.4471 -17.3889 -163.9252 172.9967 -7.0334 166.9547 -6.9506 1.4734 11.8519 0.0000 0.0000 -0.0000 0.0000 0.0000 0.0000 -150.7766 -67.9983 -45.0257 51.9559 74.1698 55.5094 0.0000 0.0000 0.0000 -0.6769 2.3827 -5.4157 0.0000 0.0000 0.0000 -19.4407 -3.5843 1.8382 -56.2516 -16.1870 -17.1022 -12.9944 -1.3361 33.8327 14.4800 -2.4800 -0.9621 0.0000 0.0000 0.0000 18.9340 0.9645 1.1385 58.5361 11.6202 16.7101 7.3516 17.4108 7.0572 -6.7616 1.1654 -0.3706 0.0000 0.0000 0.0000 12.9122 15.1551 -165.7780 -166.9264 0.7523 170.1735 12.4007 -1.7712 4.5947 -0.0000 -0.0000 0.0000
-83.3380 34.2906 -2.4062 -178.0510 -75.7562 -18.5625 0.0000 0.0000 0.0000 -12.4572 -17.3366 -163.8310 172.9895 -7.1080 167.2314 -6.8641 1.4472 11.7245 0.0000 0.0000 -0.0000 0.0000 0.0000 0.0000 -151.0776 -67.9283 -44.6995 51.1099 74.2052 54.6547 0.0000 0.0000 0.0000 -0.8740 2.9309 -4.9882 0.0000 0.0000 0.0000 -19.3512 -3.6482 1.8488 -56.4231 -16.4131 -16.7315 -13.0595 -1.6073 33.6512 14.4425 -2.4273 -0.9533 0.0000 0.0000 0.0000 19.0179 0.9650 1.1427 58.5106 11.8666 15.4687 7.8521 16.8549 8.5684 -6.7262 1.1691 -0.3687 0.0000 0.0000 0.0000 12.8735 15.2055 -165.7443 -166.9259 0.6795 170.2805 12.4199 -1.7718 4.5771 -0.0000 -0.0000 0.0000
-83.3478 34.3052 -2.4035 -178.1850 -75.7373 -18.3907 0.0000 0.0000 0.0000 -12.4063 -17.2658 -163.7405 172.9424 -7.1857 167.4784 -6.8421 1.4347 11.6192 0.0000 0.0000 -0.0000 0.0000 0.0000 0.0000 -151.5766 -67.7870 -44.2345 49.9690 74.1902 53.5318 0.0000 0.0000 0.0000 -1.3230 4.0957 -4.2040 0.0000 0.0000 0.0000 -19.2737 -3.7053 1.8584 -56.6559 -16.5353 -16.2350 -13.1543 -1.9059 33.4879 14.5073 -2.4845 -0.9645 0.0000 0.0000 0.0000 19.1258 0.9490 1.1464 58.3836 12.1397 13.5792 8.4984 16.0943 10.2674 -6.7866 0.9100 -0.3599 0.0000 0.0000 0.0000 12.9409 15.2691 -165.5953 -166.8689 0.5363 170.5933 12.4781 -1.7636 4.4369 -0.0000 -0.0000 0.0000
-83.3580 34.2909 -2.3977 -178.4250 -75.6704 -18.1155 0.0000 0.0000 0.0000 -12.3515 -17.1911 -163.8999 172.9216 -7.3610 167.2066 -6.8095 1.4334 11.7570 0.0000 0.0000 -0.0000 0.0000 0.0000 0.0000 -152.0776 -67.5647 -43.7789 49.0162 74.1015 52.7228 0.0000 0.0000 0.0000 -1.6973 5.1789 -3.6334 0.0000 0.0000 0.0000 -19.3030 -3.7607 1.8746 -56.8684 -16.4368 -15.1317 -13.3590 -2.5998 32.6905 14.6999 -2.4707 -0.9760 0.0000 0.0000 0.0000 19.1375 0.9599 1.1486 58.3050 12.2664 12.3193 8.8648 15.6265 11.1523 -6.9342 0.6394 -0.3536 0.0000 0.0000 0.0000 13.0474 15.3702 -165.6803 -166.8129 0.3794 170.4211 12.4695 -1.7711 4.5113 -0.0000 -0.0000 0.0000
-83.3662 34.2817 -2.3827 -179.1620 -75.5438 -17.3352 0.0000 0.0000 0.0000 -12.1785 -17.1730 -164.0741 172.9012 -7.5885 166.9465 -6.7643 1.4353 11.8725 0.0000 0.0000 -0.0000 0.0000 0.0000 0.0000 -152.5226 -67.2765 -43.3355 47.8896 74.1045 51.8793 0.0000 0.0000 0.0000 -1.6042 5.5696 -3.7505 0.0000 0.0000 0.0000 -19.3951 -3.7942 1.8895 -57.0806 -16.1880 -13.7639 -13.5418 -3.4496 31.4196 14.8361 -2.2855 -0.9630 0.0000 0.0000 0.0000 19.1368 0.9675 1.1476 58.2877 12.2211 12.0163 8.8882 15.5729 11.3004 -6.9776 0.6061 -0.3540 0.0000 0.0000 0.0000 13.2502 15.4420 -165.6734 -166.7706 0.1190 170.5075 12.4338 -1.7574 4.4373 -0.0000 -0.0000 0.0000
